<svg width="194" height="48" viewBox="0 0 194 48" fill="none" xmlns="http://www.w3.org/2000/svg">
<g id="Vector">
<path d="M64.4934 48C61.4306 48 58.3679 46.7592 57.0067 45.36C56.902 45.2544 56.8496 45.0432 56.9805 44.8848L59.7553 41.5849C59.86 41.4529 59.9909 41.4529 60.0956 41.5585C61.0903 42.4561 62.7919 43.3009 64.441 43.3009C65.8284 43.3009 66.4829 42.8521 66.4829 42.1393C66.4829 41.6641 66.1687 41.3737 64.8075 41.1889L63.8651 41.0569C59.7815 40.4761 57.6088 38.6546 57.6088 35.117C57.6088 31.7115 60.305 29.4147 64.5457 29.4147C67.1896 29.4147 69.5718 30.1803 71.2733 31.4739C71.4304 31.5795 71.4565 31.7379 71.3257 31.9227L68.9697 35.3018C68.865 35.4338 68.7341 35.4602 68.6032 35.381C67.4514 34.6154 66.1164 34.0874 64.7552 34.0874C63.7081 34.0874 63.2369 34.5098 63.2369 35.0642C63.2369 35.5922 63.6557 35.8562 64.9384 36.041L65.8808 36.173C70.0953 36.7538 72.111 38.5754 72.111 42.1393C72.111 45.5448 69.4671 48 64.4934 48Z" fill="#1F2326"/>
<path d="M82.3586 47.6832H77.3849C77.2278 47.6832 77.1231 47.5776 77.1231 47.4192V34.8002C77.1231 34.6946 77.0708 34.6418 76.966 34.6418H72.7515C72.5944 34.6418 72.4897 34.5362 72.4897 34.3778V29.9955C72.4897 29.8371 72.5944 29.7315 72.7515 29.7315H86.992C87.149 29.7315 87.2537 29.8371 87.2537 29.9955V34.3778C87.2537 34.5362 87.149 34.6418 86.992 34.6418H82.7774C82.6727 34.6418 82.6203 34.6946 82.6203 34.8002V47.4192C82.6203 47.5776 82.5156 47.6832 82.3586 47.6832Z" fill="#1F2326"/>
<path d="M85.6295 47.4192L91.8074 29.9955C91.8597 29.8371 91.9644 29.7315 92.1477 29.7315H97.4878C97.6711 29.7315 97.7758 29.8371 97.8281 29.9955L103.849 47.4192C103.901 47.5776 103.823 47.6832 103.666 47.6832H98.3517C98.1684 47.6832 98.0637 47.5776 98.0114 47.4192L97.3569 45.0697H92.1215L91.467 47.4192C91.4147 47.5776 91.31 47.6832 91.1267 47.6832H85.8128C85.6557 47.6832 85.5772 47.5776 85.6295 47.4192ZM93.378 40.5553H96.1266L94.8177 35.777H94.7392L93.378 40.5553Z" fill="#1F2326"/>
<path d="M112.016 48C108.954 48 105.891 46.7592 104.53 45.36C104.425 45.2544 104.373 45.0432 104.504 44.8848L107.278 41.5849C107.383 41.4529 107.514 41.4529 107.619 41.5585C108.613 42.4561 110.315 43.3009 111.964 43.3009C113.351 43.3009 114.006 42.8521 114.006 42.1393C114.006 41.6641 113.692 41.3737 112.331 41.1889L111.388 41.0569C107.305 40.4761 105.132 38.6546 105.132 35.117C105.132 31.7115 107.828 29.4147 112.069 29.4147C114.713 29.4147 117.095 30.1803 118.796 31.4739C118.953 31.5795 118.98 31.7379 118.849 31.9227L116.493 35.3018C116.388 35.4338 116.257 35.4602 116.126 35.381C114.974 34.6154 113.639 34.0874 112.278 34.0874C111.231 34.0874 110.76 34.5098 110.76 35.0642C110.76 35.5922 111.179 35.8562 112.461 36.041L113.404 36.173C117.618 36.7538 119.634 38.5754 119.634 42.1393C119.634 45.5448 116.99 48 112.016 48Z" fill="#1F2326"/>
<path d="M121.314 47.4192V29.9955C121.314 29.8371 121.419 29.7315 121.576 29.7315H126.55C126.707 29.7315 126.812 29.8371 126.812 29.9955V35.9354C126.812 36.041 126.864 36.0938 126.969 36.0938H130.66C130.764 36.0938 130.817 36.041 130.817 35.9354V29.9955C130.817 29.8371 130.921 29.7315 131.078 29.7315H136.052C136.209 29.7315 136.314 29.8371 136.314 29.9955V47.4192C136.314 47.5776 136.209 47.6832 136.052 47.6832H131.078C130.921 47.6832 130.817 47.5776 130.817 47.4192V41.1625C130.817 41.0569 130.764 41.0041 130.66 41.0041H126.969C126.864 41.0041 126.812 41.0569 126.812 41.1625V47.4192C126.812 47.5776 126.707 47.6832 126.55 47.6832H121.576C121.419 47.6832 121.314 47.5776 121.314 47.4192Z" fill="#1F2326"/>
<path d="M0.3241 0.423607H4.75679C5.22216 0.423607 5.6061 0.611337 5.90859 0.986797L18.4737 17.4601V0.845999C18.4737 0.728668 18.5086 0.634803 18.5784 0.564405C18.6715 0.47054 18.7762 0.423607 18.8925 0.423607H22.4875C22.6039 0.423607 22.697 0.47054 22.7668 0.564405C22.8598 0.634803 22.9064 0.728668 22.9064 0.845999V24.6408C22.9064 24.9224 22.7668 25.0632 22.4875 25.0632H19.1718C18.7064 25.0632 18.3224 24.8755 18.02 24.5L0.0797784 0.916399C-0.0132964 0.822534 -0.0249308 0.716935 0.0448754 0.599604C0.114682 0.482273 0.207756 0.423607 0.3241 0.423607Z" fill="white"/>
<path d="M25.7117 24.6408L43.6519 1.0572C43.9544 0.681736 44.3383 0.494005 44.8037 0.494005H48.1195C48.3987 0.494005 48.5383 0.634803 48.5383 0.916399V24.7112C48.5383 24.9928 48.3987 25.1336 48.1195 25.1336H44.8037C44.3383 25.1336 43.9544 24.9459 43.6519 24.5704L37.6137 16.6153L31.5405 24.5704C31.238 24.9459 30.8541 25.1336 30.3887 25.1336H25.956C25.8397 25.1336 25.7466 25.0867 25.6768 24.9928C25.607 24.8755 25.6186 24.7581 25.7117 24.6408ZM40.5106 12.8138L44.1056 17.5305V8.09708L40.5106 12.8138Z" fill="white"/>
<path d="M53.9963 0.494005H57.5913C57.8938 0.494005 58.045 0.634803 58.045 0.916399V20.6633H67.8179C67.9575 20.6633 68.0506 20.7219 68.0971 20.8393C68.1669 20.9566 68.1669 21.0622 68.0971 21.1561L65.4794 24.5704C65.1769 24.9459 64.8046 25.1336 64.3625 25.1336H53.9963C53.8799 25.1336 53.7752 25.0984 53.6822 25.028C53.6124 24.9341 53.5774 24.8285 53.5774 24.7112V0.916399C53.5774 0.799068 53.6124 0.705202 53.6822 0.634803C53.7752 0.540938 53.8799 0.494005 53.9963 0.494005Z" fill="white"/>
<path d="M69.8813 12.7082C69.8813 10.9013 70.207 9.22346 70.8586 7.67468C71.5333 6.10244 72.4292 4.75313 73.5461 3.62675C74.6863 2.47691 76.0242 1.58519 77.56 0.951598C79.0957 0.294543 80.7478 -0.0222522 82.5162 0.00121374C84.2846 0.0246797 85.9367 0.376674 87.4724 1.0572C89.0081 1.73772 90.3345 2.66464 91.4514 3.83795C92.5915 5.01126 93.4874 6.38404 94.1389 7.95628C94.7904 9.50505 95.1046 11.1594 95.0813 12.9194C95.058 14.7028 94.709 16.3689 94.0342 17.9177C93.3594 19.4665 92.4403 20.8158 91.2768 21.9656C90.1367 23.1155 88.7987 24.0189 87.263 24.676C85.7273 25.3096 84.0752 25.6264 82.3068 25.6264C80.5616 25.6264 78.9212 25.2979 77.3854 24.6408C75.873 23.9603 74.5583 23.0451 73.4414 21.8952C72.3245 20.7219 71.4519 19.3492 70.8237 17.7769C70.1954 16.2047 69.8813 14.5151 69.8813 12.7082ZM74.3489 12.8842C74.3489 14.034 74.5699 15.1252 75.012 16.1577C75.4541 17.1903 76.0475 18.0937 76.7921 18.8681C77.5367 19.6425 78.3976 20.2526 79.3749 20.6985C80.3522 21.1443 81.3993 21.3673 82.5162 21.3673C83.6098 21.3438 84.6453 21.0974 85.6226 20.6281C86.5998 20.1587 87.4492 19.5369 88.1705 18.7625C88.9151 17.9646 89.4968 17.0495 89.9156 16.0169C90.3345 14.961 90.5323 13.858 90.509 12.7082C90.509 11.5584 90.2879 10.4672 89.8458 9.43465C89.4037 8.40214 88.8104 7.51042 88.0658 6.7595C87.3212 5.98511 86.4486 5.37499 85.448 4.92913C84.4708 4.48327 83.4353 4.26034 82.3417 4.26034C81.248 4.28381 80.2126 4.5302 79.2353 4.99953C78.258 5.44539 77.4087 6.06724 76.6874 6.8651C75.966 7.63948 75.396 8.54294 74.9771 9.57545C74.5583 10.608 74.3489 11.7109 74.3489 12.8842Z" fill="white"/>
<path d="M99.081 0.845999C99.081 0.728668 99.1159 0.634803 99.1857 0.564405C99.2787 0.47054 99.3835 0.423607 99.4998 0.423607H117.929C118.045 0.423607 118.138 0.47054 118.208 0.564405C118.301 0.634803 118.347 0.728668 118.347 0.845999V6.02031C118.347 6.34884 118.243 6.64217 118.033 6.9003L112.519 14.1866L120.407 24.5704C120.477 24.6877 120.477 24.8051 120.407 24.9224C120.36 25.0163 120.279 25.0632 120.162 25.0632H115.73C115.264 25.0632 114.88 24.8755 114.578 24.5L106.934 14.4682C106.771 14.2804 106.771 14.1044 106.934 13.9402L113.81 4.89393H103.549V24.6408C103.549 24.9224 103.397 25.0632 103.095 25.0632H99.4998C99.3835 25.0632 99.2787 25.028 99.1857 24.9576C99.1159 24.8637 99.081 24.7581 99.081 24.6408V0.845999Z" fill="white"/>
<path d="M121.048 24.6408L138.988 1.0572C139.29 0.681736 139.674 0.494005 140.14 0.494005H143.455C143.735 0.494005 143.874 0.634803 143.874 0.916399V24.7112C143.874 24.9928 143.735 25.1336 143.455 25.1336H140.14C139.674 25.1336 139.29 24.9459 138.988 24.5704L132.949 16.6153L126.876 24.5704C126.574 24.9459 126.19 25.1336 125.725 25.1336H121.292C121.176 25.1336 121.082 25.0867 121.013 24.9928C120.943 24.8755 120.954 24.7581 121.048 24.6408ZM135.846 12.8138L139.441 17.5305V8.09708L135.846 12.8138Z" fill="white"/>
<path d="M148.913 24.7112V0.916399C148.913 0.799068 148.948 0.705202 149.018 0.634803C149.111 0.540938 149.216 0.494005 149.332 0.494005H152.648C153.113 0.494005 153.497 0.681736 153.8 1.0572L166.365 17.5305V0.916399C166.365 0.634803 166.504 0.494005 166.784 0.494005H170.379C170.658 0.494005 170.797 0.634803 170.797 0.916399V24.7112C170.797 24.9928 170.658 25.1336 170.379 25.1336H167.063C166.597 25.1336 166.214 24.9459 165.911 24.5704L153.381 8.09708V24.7112C153.381 24.9928 153.23 25.1336 152.927 25.1336H149.332C149.216 25.1336 149.111 25.0984 149.018 25.028C148.948 24.9341 148.913 24.8285 148.913 24.7112Z" fill="white"/>
<path d="M174.619 0.845999C174.619 0.728668 174.654 0.634803 174.724 0.564405C174.817 0.47054 174.921 0.423607 175.038 0.423607H190.186C190.651 0.423607 191.035 0.611337 191.337 0.986797L193.92 4.40114C194.013 4.51847 194.025 4.6358 193.955 4.75313C193.909 4.847 193.816 4.89393 193.676 4.89393H185.893V24.6408C185.893 24.9224 185.753 25.0632 185.474 25.0632H181.879C181.599 25.0632 181.46 24.9224 181.46 24.6408V4.89393H175.038C174.921 4.89393 174.817 4.85873 174.724 4.78833C174.654 4.69447 174.619 4.58887 174.619 4.47154V0.845999Z" fill="white"/>
</g>
</svg>
