<svg width="28" height="28" viewBox="0 0 28 28" fill="none" xmlns="http://www.w3.org/2000/svg">
<path d="M25 25L17.6667 17.6667M3 11.5556C3 12.6791 3.2213 13.7916 3.65125 14.8296C4.08121 15.8676 4.71141 16.8108 5.50586 17.6052C6.30032 18.3997 7.24348 19.0299 8.28149 19.4599C9.31949 19.8898 10.432 20.1111 11.5556 20.1111C12.6791 20.1111 13.7916 19.8898 14.8296 19.4599C15.8676 19.0299 16.8108 18.3997 17.6052 17.6052C18.3997 16.8108 19.0299 15.8676 19.4599 14.8296C19.8898 13.7916 20.1111 12.6791 20.1111 11.5556C20.1111 10.432 19.8898 9.31949 19.4599 8.28149C19.0299 7.24348 18.3997 6.30032 17.6052 5.50586C16.8108 4.71141 15.8676 4.08121 14.8296 3.65125C13.7916 3.2213 12.6791 3 11.5556 3C10.432 3 9.31949 3.2213 8.28149 3.65125C7.24348 4.08121 6.30032 4.71141 5.50586 5.50586C4.71141 6.30032 4.08121 7.24348 3.65125 8.28149C3.2213 9.31949 3 10.432 3 11.5556Z" stroke="#F8F8F8" stroke-width="5" stroke-linecap="round" stroke-linejoin="round"/>
</svg>
